<svg width="74" height="61" viewBox="0 0 74 61" fill="none" xmlns="http://www.w3.org/2000/svg">
<path d="M20.943 59.9923C16.2422 61.2519 12.1558 61.07 8.68404 59.4466C4.95466 57.8922 2.51194 54.9578 1.35588 50.6433C0.959027 49.1622 0.746728 47.5971 0.718988 45.9481C0.510031 36.4106 5.69148 27.6717 16.2633 19.7317C21.3089 15.895 25.8924 13.4246 30.0137 12.3203C32.0743 11.7681 33.1736 11.7496 33.3117 12.2648C33.4325 12.7156 33.1151 13.0767 32.3596 13.3481C28.0199 14.9251 23.8998 17.0643 19.9995 19.7658C15.6357 22.7986 12.3501 25.9911 10.1425 29.3434C7.91761 32.6312 6.32008 36.1996 5.34986 40.0486C4.28998 44.3356 4.20866 48.1534 5.1059 51.502C6.88313 58.1347 11.7642 60.3812 19.7492 58.2416C27.9918 56.0331 35.3836 49.8768 41.9248 39.7729C43.5966 37.2544 44.9222 34.3455 45.9017 31.0462C46.9064 27.3261 47.0637 24.1781 46.3735 21.6023C44.9931 16.4507 40.7422 15.1396 33.6209 17.6689C26.7272 20.2753 21.0383 24.8019 16.5541 31.2488C16.4771 31.4765 16.3098 31.6249 16.0522 31.6939C15.4082 31.8665 15.0259 31.7273 14.9051 31.2766C14.5945 30.1175 16.1657 27.8675 19.6187 24.5266C24.1525 20.0679 28.7934 17.1679 33.5414 15.8267C42.6464 12.9729 48.1133 14.959 49.9423 21.7849C51.1674 26.3569 50.3554 31.4403 47.5063 37.035C44.6745 42.6941 40.2747 47.9106 34.307 52.6845C29.8409 56.3658 25.3863 58.8018 20.943 59.9923Z" fill="#6D7D58"/>
<path d="M61.8689 46.7487C61.1605 46.9385 60.7201 46.7114 60.5475 46.0674C60.513 45.9386 60.5084 45.6638 60.5337 45.2429L63.6698 28.3558C64.233 25.3061 64.6933 22.3876 65.0507 19.6001C65.4553 16.7309 65.7891 13.9843 66.0522 11.3601C64.2251 13.2991 62.6343 15.3472 61.2799 17.5046C60.8683 18.029 60.5659 18.3171 60.3727 18.3689C60.1795 18.4207 60.0484 18.3177 59.9794 18.0602C59.8931 17.7382 60.1328 17.0873 60.6985 16.1075L69.3769 1.35881C69.5529 1.24265 69.8018 1.14143 70.1238 1.05516C70.639 0.917122 71.2467 0.995841 71.9471 1.29132C72.6301 1.5224 73.0493 1.92771 73.2046 2.50727L73.2823 2.79704C71.5267 7.06347 69.681 13.183 67.7452 21.1557C66.6255 25.7349 65.6473 30.0691 64.8105 34.1583C64.0381 38.2303 63.4479 42.0809 63.04 45.7102C63.0964 46.1782 62.706 46.5244 61.8689 46.7487Z" fill="#6D7D58"/>
</svg>
