<svg width="92" height="63" viewBox="0 0 92 63" fill="none" xmlns="http://www.w3.org/2000/svg">
<path d="M20.4606 61.9311C15.7597 63.1906 11.6734 63.0087 8.20161 61.3853C4.47222 59.8309 2.0295 56.8965 0.873446 52.582C0.47659 51.1009 0.264291 49.5359 0.236551 47.8869C0.0275938 38.3493 5.20904 29.6105 15.7809 21.6704C20.8265 17.8338 25.4099 15.3633 29.5312 14.259C31.5919 13.7069 32.6912 13.6884 32.8292 14.2035C32.95 14.6543 32.6327 15.0154 31.8772 15.2869C27.5374 16.8638 23.4174 19.003 19.517 21.7046C15.1533 24.7373 11.8676 27.9298 9.66002 31.2821C7.43517 34.57 5.83764 38.1384 4.86742 41.9873C3.80755 46.2743 3.72623 50.0921 4.62347 53.4407C6.40069 60.0734 11.2818 62.3199 19.2668 60.1804C27.5094 57.9718 34.9012 51.8155 41.4423 41.7116C43.1141 39.1931 44.4398 36.2842 45.4192 32.985C46.4239 29.2648 46.5812 26.1169 45.891 23.5411C44.5107 18.3895 40.2598 17.0783 33.1385 19.6076C26.2448 22.214 20.5559 26.7406 16.0717 33.1876C15.9946 33.4153 15.8273 33.5636 15.5698 33.6326C14.9258 33.8052 14.5434 33.6661 14.4227 33.2153C14.1121 32.0562 15.6833 29.8062 19.1362 26.4653C23.6701 22.0066 28.311 19.1067 33.059 17.7654C42.1639 14.9117 47.6309 16.8977 49.4599 23.7236C50.685 28.2956 49.873 33.379 47.0239 38.9737C44.1921 44.6328 39.7923 49.8493 33.8245 54.6232C29.3585 58.3045 24.9038 60.7405 20.4606 61.9311Z" fill="#6D7D58"/>
<path d="M86.6666 44.7089C86.3446 44.7951 86.1232 44.6129 86.0024 44.1621C85.9334 43.9045 86.0984 43.6188 86.4974 43.3048C87.5656 42.3974 88.0134 41.6217 87.8409 40.9778C87.5476 39.8831 85.8163 39.3462 82.6471 39.3672C80.1735 39.4088 78.1641 39.6366 76.6186 40.0507C72.9182 41.1803 67.9035 43.9734 61.5746 48.4299C60.7122 49.0751 60.0235 49.4667 59.5083 49.6047C58.6068 49.8463 58.0611 49.6129 57.8713 48.9046C57.5952 47.8743 57.916 46.753 58.8335 45.5409C59.7511 44.3288 60.7894 43.5675 61.9485 43.2569C65.8362 40.7658 70.1516 36.7797 74.8946 31.2987C78.5442 27.146 81.5797 23.0197 84.0011 18.92C87.6654 12.7618 89.0403 7.97617 88.1258 4.56323C87.4356 1.98743 85.5773 1.10502 82.5507 1.91598C79.2666 2.79597 75.9112 5.21342 72.4848 9.16835C69.1698 13.0244 67.3964 16.7089 67.1644 20.222C67.1265 20.8533 66.9143 21.2208 66.528 21.3243C66.3348 21.3761 66.1951 21.2409 66.1088 20.919C66.057 20.7258 66.0375 20.524 66.0501 20.3135C65.7829 15.9679 67.105 11.8867 70.0163 8.0698C72.992 4.23565 76.7659 1.70604 81.338 0.480964C83.5918 -0.122947 85.576 0.0700692 87.2907 1.06002C88.9881 1.98557 90.1387 3.57526 90.7426 5.82909C92.192 11.2383 89.6121 17.451 83.0028 24.4674C82.2393 25.2241 81.2936 26.2022 80.1656 27.4017L76.2349 31.6643C72.2036 36.1954 69.858 39.0325 69.198 40.1756C81.1755 36.9662 87.6215 37.068 88.536 40.481C88.9674 42.0908 88.4966 43.4248 87.1236 44.4829C87.0121 44.5818 86.8597 44.6571 86.6666 44.7089Z" fill="#6D7D58"/>
</svg>
