<svg width="92" height="63" viewBox="0 0 92 63" fill="none" xmlns="http://www.w3.org/2000/svg">
<path d="M20.4606 61.1899C15.7597 62.4494 11.6734 62.2675 8.20162 60.6441C4.47224 59.0897 2.02952 56.1553 0.873458 51.8408C0.476602 50.3597 0.264303 48.7947 0.236563 47.1457C0.0276061 37.6081 5.20905 28.8693 15.7809 20.9292C20.8265 17.0926 25.4099 14.6221 29.5312 13.5178C31.5919 12.9657 32.6912 12.9472 32.8292 13.4623C32.95 13.9131 32.6327 14.2742 31.8772 14.5457C27.5375 16.1226 23.4174 18.2618 19.5171 20.9634C15.1533 23.9961 11.8676 27.1886 9.66003 30.5409C7.43518 33.8288 5.83765 37.3972 4.86743 41.2461C3.80756 45.5332 3.72624 49.351 4.62348 52.6995C6.4007 59.3322 11.2818 61.5788 19.2668 59.4392C27.5094 57.2306 34.9012 51.0743 41.4423 40.9704C43.1141 38.4519 44.4398 35.543 45.4192 32.2438C46.424 28.5236 46.5812 25.3757 45.891 22.7999C44.5107 17.6483 40.2598 16.3371 33.1385 18.8664C26.2448 21.4728 20.5559 25.9994 16.0717 32.4464C15.9947 32.6741 15.8273 32.8224 15.5698 32.8914C14.9258 33.064 14.5435 32.9249 14.4227 32.4741C14.1121 31.315 15.6833 29.065 19.1363 25.7242C23.6701 21.2655 28.311 18.3655 33.059 17.0243C42.1639 14.1705 47.6309 16.1565 49.4599 22.9824C50.685 27.5544 49.873 32.6378 47.0239 38.2325C44.1921 43.8916 39.7923 49.1081 33.8245 53.882C29.3585 57.5633 24.9038 59.9993 20.4606 61.1899Z" fill="#6D7D58"/>
<path d="M68.875 49.2525C61.4696 51.2368 57.2147 50.1683 56.1104 46.047C55.7999 44.8879 55.9746 43.7368 56.6345 42.5937C57.3416 41.369 58.4656 40.4121 60.0065 39.7232C60.7148 39.5334 61.1035 39.5673 61.1725 39.8248C61.2243 40.018 60.9132 40.2739 60.2394 40.5925C59.2735 40.8513 58.6043 41.4448 58.2318 42.3728C57.7132 43.2709 57.5747 44.1708 57.8163 45.0723C58.6445 48.1633 62.1496 48.8805 68.3315 47.2241C72.7748 46.0335 76.5665 44.0858 79.7068 41.3808C83.246 38.362 84.6188 35.3714 83.8251 32.4092C82.9969 29.3183 79.8022 27.8277 74.2411 27.9374C71.0719 27.9584 68.2488 28.3697 65.7719 29.1714L65.289 29.3008C64.5162 29.5079 64.0522 29.3216 63.8969 28.7421C63.6726 27.9049 64.3182 27.3523 65.8338 27.0843C69.7964 26.1605 73.5802 24.6981 77.1851 22.6969C81.7041 20.2437 84.7972 17.6204 86.4644 14.827C88.0545 12.2614 88.5908 10.0126 88.0732 8.08079C87.4693 5.82696 85.7045 4.26377 82.779 3.39122C79.9179 2.50141 76.9419 2.47062 73.8509 3.29884C69.3432 4.50667 65.4549 6.48029 62.1859 9.21973C58.5822 12.2559 57.0956 15.2079 57.726 18.0758C57.856 19.0762 57.7279 19.6282 57.3415 19.7317C56.8907 19.8525 56.5532 19.4943 56.3289 18.6572C55.2073 14.4715 56.7853 10.7013 61.0628 7.34657C64.5423 4.61977 68.3426 2.70422 72.4639 1.59993C76.9716 0.392104 80.9803 0.284241 84.49 1.27634C88.1284 2.23392 90.3014 4.03282 91.0088 6.67301C91.6127 8.92684 91.0489 11.4591 89.3174 14.2697C86.4969 18.6834 81.0822 22.6879 73.0732 26.2833C81.7413 24.3748 86.7569 25.9642 88.12 31.0514C89.069 34.5931 87.3191 38.2368 82.8703 41.9826C79.0137 45.3626 74.3486 47.7859 68.875 49.2525Z" fill="#6D7D58"/>
</svg>
