<svg width="86" height="65" viewBox="0 0 86 65" fill="none" xmlns="http://www.w3.org/2000/svg">
<path d="M20.4606 64.0482C15.7598 65.3078 11.6735 65.1259 8.20167 63.5025C4.47229 61.9481 2.02957 59.0137 0.873508 54.6992C0.476652 53.2181 0.264353 51.6531 0.236613 50.0041C0.0276562 40.4665 5.2091 31.7277 15.781 23.7876C20.8266 19.951 25.41 17.4805 29.5313 16.3762C31.5919 15.824 32.6913 15.8056 32.8293 16.3207C32.9501 16.7715 32.6327 17.1326 31.8772 17.404C27.5375 18.981 23.4175 21.1202 19.5171 23.8218C15.1534 26.8545 11.8677 30.047 9.66008 33.3993C7.43524 36.6872 5.8377 40.2555 4.86748 44.1045C3.80761 48.3915 3.72629 52.2093 4.62353 55.5579C6.40075 62.1906 11.2819 64.4371 19.2668 62.2976C27.5094 60.089 34.9013 53.9327 41.4424 43.8288C43.1142 41.3103 44.4398 38.4014 45.4193 35.1022C46.424 31.382 46.5813 28.234 45.8911 25.6582C44.5107 20.5066 40.2599 19.1955 33.1385 21.7248C26.2449 24.3312 20.5559 28.8578 16.0717 35.3048C15.9947 35.5325 15.8274 35.6808 15.5698 35.7498C14.9259 35.9224 14.5435 35.7833 14.4227 35.3325C14.1121 34.1734 15.6833 31.9234 19.1363 28.5825C23.6701 24.1238 28.311 21.2239 33.059 19.8826C42.164 17.0289 47.631 19.0149 49.4599 25.8408C50.685 30.4128 49.873 35.4962 47.024 41.0909C44.1921 46.75 39.7924 51.9665 33.8246 56.7404C29.3585 60.4217 24.9039 62.8577 20.4606 64.0482Z" fill="#6D7D58"/>
<path d="M73.0729 50.572C72.3002 50.779 71.7758 50.3674 71.4997 49.3371C71.2236 48.3068 71.5592 45.1801 72.5063 39.957L74.2976 29.6419C74.2159 29.5947 73.9175 29.6402 73.4023 29.7782C67.5424 31.3484 62.2287 33.6694 57.4613 36.7413C56.4954 37.0001 55.8917 36.6787 55.6501 35.7772C55.4948 35.1977 56.1076 34.1362 57.4886 32.5929C63.1066 26.2562 67.9117 20.6206 71.9039 15.6858C74.0437 13.1109 75.9087 10.5407 77.4988 7.97502C79.0717 5.34497 80.4192 2.77532 81.5414 0.266058C82.8293 -0.0790341 83.8011 0.971926 84.4567 3.41894L84.845 4.86783C84.1505 5.88213 82.8686 9.46947 80.9993 15.6299C79.053 22.0179 78.1489 25.4695 78.2869 25.9847L79.1115 25.9708C80.3568 25.9822 81.5677 25.8648 82.7441 25.6186C84.3931 25.5909 85.3039 25.899 85.4764 26.543C85.6317 27.1225 85.4196 27.4899 84.84 27.6452L84.7624 27.3555C84.8141 27.5486 84.7434 27.6711 84.5502 27.7229L84.0414 27.7557L82.3217 27.9059L80.2156 28.1596C79.6832 28.2333 79.3526 28.2874 79.2238 28.3219C78.9018 28.4081 78.6206 28.518 78.3803 28.6514L77.4144 28.9102C76.7224 31.9944 75.8431 36.4402 74.7764 42.2474L73.7334 48.0139L73.4644 49.3283C73.3747 49.7664 73.2442 50.181 73.0729 50.572ZM74.732 26.6267C75.6335 26.3851 77.1509 20.457 79.2842 8.84249C77.479 11.1207 75.2708 13.9555 72.6596 17.3469C70.0955 20.6566 67.0899 24.6368 63.6428 29.2874L70.8872 27.3463C71.4024 27.2083 71.9262 27.1024 72.4586 27.0288L74.1265 26.6854C74.4485 26.5991 74.6503 26.5795 74.732 26.6267Z" fill="#6D7D58"/>
</svg>
