<svg width="240" height="36" viewBox="0 0 240 36" fill="none" xmlns="http://www.w3.org/2000/svg">
<g clip-path="url(#clip0_115_701)">
<path d="M57.6969 13.4842H65.6641L57.1753 26.5731H49.7061L57.6969 13.4842ZM50.3463 11.8481H63.1269V10.1646H70.359V11.8481H73.3467V15.4286H70.3827V26.5731H63.1269V15.4286H50.3463V11.8481Z" fill="#1A2128"/>
<path d="M94.5102 10.1646H102.193L101.896 11.8481H112.069C114.369 11.8718 115.329 13.0811 114.962 15.4997L112.792 26.5731H104.955L106.983 15.4286H101.398L99.952 22.7318H92.2812L94.5102 10.1646Z" fill="#1A2128"/>
<path d="M116.407 10.6152H134.547C136.799 10.6389 137.748 11.8482 137.392 14.3143L135.092 26.5733H127.22L129.472 14.1957H116.407V10.6152Z" fill="#1A2128"/>
<path d="M152.9 15.7843H139.266V12.6543H157.192C159.207 12.678 160.037 13.745 159.681 15.9147L158.01 22.471H151.489L152.9 15.7843ZM143.486 17.1832H150.576L148.015 26.5731H141.566L143.486 17.1832Z" fill="#1A2128"/>
<path d="M161.271 10.6152H171.941V14.1483H161.271V10.6152ZM176.517 15.0612H184.982L176.268 26.5733H168.04L176.517 15.0612Z" fill="#1A2128"/>
<path d="M190.187 23.8464V13.4725C190.258 11.8838 190.827 10.5796 193.174 10.6033H208.611C211.005 10.5796 211.575 11.9312 211.598 13.6385V23.633C211.575 25.2691 211.005 26.5732 208.611 26.5732H193.174C190.827 26.5732 190.258 25.3402 190.187 23.8464ZM197.513 14.1957V23.1113H204.224V14.1957H197.513Z" fill="#1A2128"/>
<path d="M214.598 11.8481H222.351V10.1645H228.35V11.8481H235.511V7.01088H237.076V12.3697H236.258V15.0966H228.398V26.5731H222.351V15.0966H214.598V11.8481ZM220.336 26.5731H214.598L215.214 16.9105H220.905L220.336 26.5731ZM235.666 16.9105L236.258 26.5731H230.532L229.963 16.9105H235.666ZM238.416 6.99902H239.981V12.3697H238.416V6.99902Z" fill="#1A2128"/>
<path d="M75.0723 16.7183H86.9548C88.3212 16.7183 89.7261 17.6312 89.7261 19.1902V20.2513H75.0723V16.7183Z" fill="#1A2128"/>
<path d="M19.4536 35.6905C29.223 35.6905 37.1426 27.7708 37.1426 18.0015C37.1426 8.23213 29.223 0.3125 19.4536 0.3125C9.68428 0.3125 1.76465 8.23213 1.76465 18.0015C1.76465 27.7708 9.68428 35.6905 19.4536 35.6905Z" fill="url(#paint0_linear_115_701)"/>
<path d="M17.7193 35.6905C27.4886 35.6905 35.4082 27.7708 35.4082 18.0015C35.4082 8.23213 27.4886 0.3125 17.7193 0.3125C7.9499 0.3125 0.0302734 8.23213 0.0302734 18.0015C0.0302734 27.7708 7.9499 35.6905 17.7193 35.6905Z" fill="url(#paint1_linear_115_701)"/>
<path d="M18.5874 35.6905C28.3568 35.6905 36.2764 27.7708 36.2764 18.0015C36.2764 8.23213 28.3568 0.3125 18.5874 0.3125C8.81806 0.3125 0.898438 8.23213 0.898438 18.0015C0.898438 27.7708 8.81806 35.6905 18.5874 35.6905Z" fill="url(#paint2_linear_115_701)"/>
<path d="M35.8406 15.4289C35.8406 22.1393 26.9161 25.4115 18.5873 25.4115C10.2585 25.4115 1.33105 22.1393 1.33105 15.4289C1.33105 8.71845 10.2556 1.104 18.5873 1.104C26.919 1.104 35.8406 8.71548 35.8406 15.4289Z" fill="#1A1A1A"/>
<path d="M12.1859 17.3792C14.5824 17.3792 16.5252 15.4364 16.5252 13.0399C16.5252 10.6434 14.5824 8.70068 12.1859 8.70068C9.78943 8.70068 7.84668 10.6434 7.84668 13.0399C7.84668 15.4364 9.78943 17.3792 12.1859 17.3792Z" fill="url(#paint3_linear_115_701)"/>
<path d="M24.9896 17.3792C27.3861 17.3792 29.3289 15.4364 29.3289 13.0399C29.3289 10.6434 27.3861 8.70068 24.9896 8.70068C22.5931 8.70068 20.6504 10.6434 20.6504 13.0399C20.6504 15.4364 22.5931 17.3792 24.9896 17.3792Z" fill="url(#paint4_linear_115_701)"/>
<path d="M12.1851 14.7765C13.1444 14.7765 13.922 13.9989 13.922 13.0396C13.922 12.0804 13.1444 11.3027 12.1851 11.3027C11.2259 11.3027 10.4482 12.0804 10.4482 13.0396C10.4482 13.9989 11.2259 14.7765 12.1851 14.7765Z" fill="white"/>
<path d="M26.3178 11.0955L22.3224 12.8739C22.3039 12.8822 22.2872 12.8941 22.2733 12.9089C22.2594 12.9237 22.2485 12.9411 22.2413 12.9601C22.2342 12.9791 22.2308 12.9993 22.2315 13.0196C22.2322 13.0399 22.2369 13.0599 22.2453 13.0784C22.2517 13.0948 22.2613 13.1098 22.2735 13.1225C22.2857 13.1353 22.3003 13.1454 22.3165 13.1525L26.4453 15.2272C26.4748 15.2425 26.5085 15.2478 26.5413 15.2423C26.5741 15.2368 26.6042 15.2209 26.6272 15.1969C26.6502 15.1729 26.6649 15.1421 26.6689 15.1091C26.673 15.0761 26.6663 15.0427 26.6498 15.0138L25.7399 13.4163H27.4115C27.4815 13.4163 27.5486 13.3885 27.5981 13.339C27.6475 13.2895 27.6753 13.2224 27.6753 13.1525C27.6753 13.0825 27.6475 13.0154 27.5981 12.9659C27.5486 12.9165 27.4815 12.8887 27.4115 12.8887H25.7221L26.5164 11.303C26.5305 11.2747 26.5356 11.2428 26.5309 11.2116C26.5263 11.1804 26.5122 11.1514 26.4906 11.1284C26.4689 11.1055 26.4407 11.0897 26.4098 11.0833C26.379 11.0769 26.3468 11.0801 26.3178 11.0925V11.0955Z" fill="white"/>
<path d="M16.5842 24.0627C16.4479 24.448 12.906 24.6555 9.28101 23.3572C5.65608 22.059 3.32343 19.7797 3.45977 19.3944C3.59612 19.0091 5.95247 21.1728 9.57741 22.468C13.2023 23.7633 16.7235 23.6773 16.5842 24.0627Z" fill="#444444"/>
</g>
<defs>
<linearGradient id="paint0_linear_115_701" x1="31.9616" y1="5.49352" x2="6.94863" y2="30.5094" gradientUnits="userSpaceOnUse">
<stop stop-color="#21BAFF"/>
<stop offset="1" stop-color="#006FB9"/>
</linearGradient>
<linearGradient id="paint1_linear_115_701" x1="35.4053" y1="18.0015" x2="0.0302734" y2="18.0015" gradientUnits="userSpaceOnUse">
<stop stop-color="#21BAFF"/>
<stop offset="1" stop-color="#006FB9"/>
</linearGradient>
<linearGradient id="paint2_linear_115_701" x1="0.898438" y1="18.0015" x2="36.2734" y2="18.0015" gradientUnits="userSpaceOnUse">
<stop stop-color="#21BAFF"/>
<stop offset="1" stop-color="#006FB9"/>
</linearGradient>
<linearGradient id="paint3_linear_115_701" x1="7.84372" y1="13.0399" x2="16.5252" y2="13.0399" gradientUnits="userSpaceOnUse">
<stop stop-color="#21BAFF"/>
<stop offset="1" stop-color="#21BAFF"/>
</linearGradient>
<linearGradient id="paint4_linear_115_701" x1="20.6474" y1="13.0399" x2="29.3289" y2="13.0399" gradientUnits="userSpaceOnUse">
<stop stop-color="#F98297"/>
<stop offset="1" stop-color="#F98297"/>
</linearGradient>
<clipPath id="clip0_115_701">
<rect width="239.939" height="35.375" fill="white" transform="translate(0.0302734 0.3125)"/>
</clipPath>
</defs>
</svg>
