<svg width="30" height="66" viewBox="0 0 30 66" fill="none" xmlns="http://www.w3.org/2000/svg">
<g clip-path="url(#clip0_110_248)">
<path d="M1.83961 31.371C2.59696 31.371 3.12711 31.6361 3.46791 32.2041C4.22526 33.4159 5.24769 34.4383 6.19438 35.4986C7.86055 37.392 9.52672 39.2475 11.1172 41.1787C15.6613 46.7453 20.1675 52.3497 24.6359 57.9541C25.3554 58.825 25.9991 59.8096 26.7186 60.6805C27.3245 61.4 27.9682 62.0437 28.6877 62.6496C29.3314 63.2176 29.445 64.0129 29.5208 64.7702C29.5586 65.1868 29.2557 65.4518 28.877 65.6033C27.173 66.4364 25.0903 65.5276 24.4465 63.9371C23.8785 62.4982 23.0833 61.2107 22.2881 59.8853C21.8337 59.1279 21.455 58.2949 20.9627 57.5754C19.6374 55.7199 18.2741 53.8644 16.9488 52.0088C15.1311 49.5096 13.3513 46.9725 11.458 44.5489C9.86753 42.5041 8.12562 40.535 6.42158 38.528C5.36129 37.2784 4.26313 36.1045 2.97564 35.0442C2.48336 34.6276 1.91534 34.2868 1.42307 33.9082C1.12013 33.6431 0.817186 33.378 0.552113 33.0751C0.211305 32.6964 0.324908 32.0905 0.741451 31.7876C1.12013 31.5225 1.4988 31.3332 1.83961 31.371Z" fill="#2F2F33"/>
<path d="M0.362793 31.4472C0.400661 31.0306 1.04441 30.1218 1.53669 30.0082C2.29404 29.781 3.08926 29.5538 3.84661 29.3266C4.9069 28.9858 5.70212 28.342 6.45947 27.5468C8.08777 25.8049 9.79181 24.1009 11.4201 22.3211C13.5407 19.9733 15.5855 17.5876 17.6683 15.202C20.016 12.4755 22.1745 9.59759 24.2951 6.68179C25.6204 4.86414 26.8701 3.0465 28.1954 1.22886C28.3469 1.00165 28.5741 0.812317 28.8013 0.660847C29.0285 0.509377 29.2936 0.547244 29.4829 0.736582C29.8616 1.11526 29.8995 1.87261 29.5587 2.28915C28.5741 3.53878 27.5896 4.78841 26.6429 6.07591C23.9164 9.67332 21.2278 13.3465 18.5392 16.9439C15.4719 21.0715 12.1017 24.9339 8.73152 28.8343C7.29255 30.5005 5.81572 32.0909 4.41462 33.7571C3.65727 34.628 2.89992 34.7416 1.76389 34.0979C0.779336 33.5299 0.476396 32.5832 0.362793 31.4472Z" fill="#2F2F33"/>
</g>
<defs>
<clipPath id="clip0_110_248">
<rect width="29.3852" height="65.3594" fill="white" transform="translate(0.362793 0.546875)"/>
</clipPath>
</defs>
</svg>
