<svg width="23" height="30" viewBox="0 0 23 30" fill="none" xmlns="http://www.w3.org/2000/svg">
<g clip-path="url(#clip0_110_437)">
<path d="M2.72149 1.94571C0.741488 3.22171 0.354288 7.22571 1.10229 10.4817C1.68309 13.0161 2.91509 16.4217 4.99189 19.6249C6.94549 22.6433 9.67349 25.3449 11.7503 26.9025C14.4167 28.9089 18.2271 30.1849 20.1983 28.9089C21.1927 28.2665 22.6799 26.4977 22.7415 26.1809C22.7415 26.1809 21.8703 24.8433 21.6855 24.5441L18.7727 20.0561C18.5527 19.7217 17.1975 20.0297 16.5111 20.4169C15.5783 20.9449 14.7247 22.3617 14.7247 22.3617C14.0911 22.7313 13.5543 22.3617 12.4367 21.8513C11.0639 21.2177 9.52389 19.2553 8.29189 17.4865C7.17429 15.6385 6.01269 13.4297 5.99509 11.9249C5.97749 10.6929 5.86309 10.0593 6.46149 9.62811C6.46149 9.62811 8.09829 9.42571 8.96069 8.79211C9.59429 8.32571 10.4303 7.20811 10.2103 6.87371L7.29749 2.38571C7.10389 2.09531 6.24149 0.748913 6.24149 0.748913C5.93349 0.669713 3.71589 1.30331 2.72149 1.94571Z" fill="#44563B"/>
</g>
<defs>
<clipPath id="clip0_110_437">
<rect width="22" height="28.6968" fill="white" transform="translate(0.750488 0.730469)"/>
</clipPath>
</defs>
</svg>
