<svg width="31" height="66" viewBox="0 0 31 66" fill="none" xmlns="http://www.w3.org/2000/svg">
<g clip-path="url(#clip0_110_307)">
<path d="M28.8807 35.0816C28.1233 35.0816 27.5932 34.8165 27.2524 34.2485C26.495 33.0368 25.4726 32.0144 24.5259 30.9541C22.8597 29.0607 21.1936 27.2052 19.6031 25.2739C15.059 19.7074 10.5906 14.103 6.0844 8.49861C5.36492 7.62765 4.72117 6.6431 4.00169 5.77214C3.39581 5.09053 2.71419 4.44678 2.03258 3.80303C1.38883 3.23502 1.27523 2.4398 1.19949 1.68245C1.16162 1.30377 1.46456 1.0387 1.84324 0.849364C3.54728 0.0162783 5.62999 0.925099 6.27374 2.51554C6.84176 3.9545 7.63697 5.242 8.43219 6.56736C8.8866 7.32471 9.26528 8.1578 9.75756 8.87728C11.0829 10.7328 12.4462 12.5883 13.7715 14.4438C15.5892 16.9431 17.3689 19.4802 19.2623 21.9037C20.8527 23.9486 22.5947 25.9177 24.2987 27.9247C25.359 29.1743 26.4571 30.3482 27.7446 31.4085C28.2369 31.825 28.8049 32.1658 29.2972 32.5445C29.6001 32.8096 29.9031 33.0746 30.1682 33.3776C30.509 33.7563 30.3954 34.3621 29.9788 34.6651C29.6001 34.9301 29.2593 35.1195 28.8807 35.0816Z" fill="#2F2F33"/>
<path d="M30.3572 34.9681C30.3194 35.3847 29.6756 36.2935 29.1833 36.4071C28.426 36.6343 27.6308 36.8615 26.8734 37.0887C25.8131 37.4295 25.0179 38.0733 24.2606 38.8685C22.6322 40.6104 20.9282 42.3144 19.2999 44.0942C17.1793 46.442 15.1345 48.8276 13.0518 51.2133C10.704 53.9398 8.54552 56.8177 6.42494 59.7335C5.09958 61.5511 3.84995 63.3688 2.52458 65.1864C2.37311 65.4136 2.14591 65.603 1.9187 65.7544C1.6915 65.9059 1.42643 65.868 1.23709 65.6787C0.858412 65.3 0.820544 64.5427 1.16135 64.1261C2.14591 62.8765 3.13046 61.6269 4.07715 60.3394C6.76575 56.7041 9.41648 53.0688 12.1051 49.4335C15.1723 45.306 18.5426 41.4435 21.9128 37.5431C23.3517 35.8769 24.8286 34.2865 26.2297 32.6203C26.987 31.7494 27.7444 31.6358 28.8804 32.2795C29.9786 32.9233 30.2436 33.87 30.3572 34.9681Z" fill="#2F2F33"/>
</g>
<defs>
<clipPath id="clip0_110_307">
<rect width="29.3852" height="65.3594" fill="white" transform="translate(0.972168 0.546875)"/>
</clipPath>
</defs>
</svg>
