<svg width="101" height="35" viewBox="0 0 101 35" fill="none" xmlns="http://www.w3.org/2000/svg">
<g clip-path="url(#clip0_110_464)">
<path d="M0 9.92773H14.1519C16.5354 9.92773 18.323 10.5139 19.5147 11.6864C20.7065 12.8588 21.4513 14.3243 21.4513 15.9364C21.4513 17.4019 21.0044 18.5743 20.1106 19.6001C19.5147 20.3329 18.6209 20.7726 17.4292 21.2122C19.2168 21.6519 20.4086 22.3846 21.3024 23.4105C22.1962 24.4364 22.4941 25.7553 22.4941 27.2208C22.4941 28.5398 22.1962 29.5657 21.6003 30.5915C21.0044 31.6174 20.2596 32.3501 19.2168 32.9364C18.6209 33.2295 17.5782 33.5226 16.3864 33.6691C14.7478 33.8157 13.556 33.9622 12.9602 33.9622H0V9.92773ZM7.59734 19.307H10.8746C12.0664 19.307 12.8112 19.1605 13.4071 18.7208C13.854 18.2812 14.1519 17.695 14.1519 16.9622C14.1519 16.2295 13.854 15.6433 13.4071 15.3501C12.9602 14.9105 12.0664 14.7639 11.0236 14.7639H7.59734V19.307ZM7.59734 28.8329H11.4705C12.8112 28.8329 13.705 28.5398 14.3009 28.1001C14.8968 27.6605 15.0457 27.0743 15.0457 26.3415C15.0457 25.6088 14.7478 25.0226 14.3009 24.5829C13.705 24.1433 12.8112 23.9967 11.4705 23.9967H7.59734V28.8329Z" fill="white"/>
<path d="M26.9629 9.92773H34.5602V33.9622H26.9629V9.92773Z" fill="white"/>
<path d="M38.5825 26.0476L45.733 25.608C45.8819 26.7804 46.1799 27.6597 46.6268 28.2459C47.3716 29.2718 48.5633 29.7114 49.9041 29.7114C50.9468 29.7114 51.8406 29.4183 52.4365 28.9787C53.0324 28.539 53.3303 27.9528 53.3303 27.2201C53.3303 26.6339 53.0324 26.0476 52.4365 25.608C51.8406 25.1683 50.6489 24.5821 48.5633 24.1425C45.2861 23.4097 42.9026 22.3839 41.4129 21.2114C39.9232 20.039 39.3274 18.427 39.3274 16.5218C39.3274 15.3494 39.6253 14.177 40.3701 13.0045C41.115 11.8321 42.1577 11.0994 43.6474 10.3666C45.1371 9.78041 47.0737 9.4873 49.6061 9.4873C52.7344 9.4873 55.1179 10.0735 56.7566 11.2459C58.3952 12.4183 59.438 14.177 59.7359 16.6683L52.5855 17.108C52.4365 16.0821 51.9896 15.2028 51.3937 14.7632C50.7979 14.3235 49.9041 14.0304 48.8613 14.0304C47.9675 14.0304 47.3716 14.177 46.9247 14.6166C46.4778 15.0563 46.3288 15.4959 46.3288 15.9356C46.3288 16.3752 46.4778 16.6683 46.9247 16.9614C47.2226 17.2545 48.1164 17.5476 49.4572 17.8408C52.7344 18.5735 55.1179 19.3063 56.6076 20.039C58.0973 20.7718 59.14 21.6511 59.7359 22.677C60.3318 23.7028 60.7787 24.8752 60.7787 26.1942C60.7787 27.8063 60.3318 29.1252 59.438 30.4442C58.5442 31.7632 57.3524 32.789 55.8628 33.3752C54.3731 34.108 52.2875 34.4011 49.9041 34.4011C45.733 34.4011 42.9026 33.6683 41.2639 32.0563C39.6253 30.4442 38.7315 28.3925 38.5825 26.0476Z" fill="white"/>
<path d="M80.5914 9.92773H88.1887V24.2898C88.1887 25.7553 87.8908 27.0743 87.4439 28.3933C86.997 29.7122 86.2521 30.7381 85.3583 31.7639C84.4645 32.6432 83.4218 33.376 82.379 33.8157C80.8893 34.4019 79.1017 34.5484 77.0162 34.5484C75.8244 34.5484 74.4837 34.4019 73.143 34.2553C71.8023 34.1088 70.6106 33.8157 69.5678 33.2295C68.674 32.7898 67.7802 32.057 67.0353 31.1777C66.2905 30.2984 65.6946 29.4191 65.3967 28.3933C64.9498 26.9277 64.6519 25.4622 64.6519 24.2898V9.92773H72.2492V24.5829C72.2492 25.9019 72.5471 26.9277 73.292 27.6605C74.0368 28.3933 75.0796 28.8329 76.4203 28.8329C77.761 28.8329 78.8038 28.5398 79.5486 27.807C80.2934 27.0743 80.5914 26.0484 80.5914 24.7295V9.92773Z" fill="white"/>
<path d="M93.4028 9.92773H101V33.9622H93.4028V9.92773Z" fill="white"/>
<path d="M72.1002 4.06418C72.1002 6.11591 70.4616 7.72798 68.376 7.72798C66.2905 7.72798 64.6519 6.11591 64.6519 4.06418C64.6519 2.01246 66.2905 0.400391 68.376 0.400391C70.4616 0.400391 72.1002 2.01246 72.1002 4.06418Z" fill="white"/>
<path d="M88.0397 4.06418C88.0397 6.11591 86.401 7.72798 84.3155 7.72798C82.23 7.72798 80.5913 6.11591 80.5913 4.06418C80.5913 2.01246 82.23 0.400391 84.3155 0.400391C86.401 0.400391 88.0397 2.01246 88.0397 4.06418Z" fill="white"/>
</g>
<defs>
<clipPath id="clip0_110_464">
<rect width="101" height="34" fill="white" transform="translate(0 0.400391)"/>
</clipPath>
</defs>
</svg>
