<svg width="136" height="47" viewBox="0 0 136 47" fill="none" xmlns="http://www.w3.org/2000/svg">
<g clip-path="url(#clip0_110_413)">
<path d="M0.276855 13.2695H19.1898C22.3752 13.2695 24.7642 14.0659 26.3569 15.6585C27.9495 17.2512 28.945 19.2421 28.945 21.432C28.945 23.4228 28.3477 25.0155 27.1532 26.4091C26.3569 27.4045 25.1624 28.0018 23.5697 28.599C25.9587 29.1963 27.5514 30.1917 28.7459 31.5853C29.9404 32.9789 30.3385 34.7706 30.3385 36.7614C30.3385 38.5532 29.9404 39.9468 29.144 41.3404C28.3477 42.734 27.3523 43.7294 25.9587 44.5257C25.1624 44.9239 23.7688 45.3221 22.1761 45.5211C19.9862 45.7202 18.3935 45.9193 17.5972 45.9193H0.276855V13.2695ZM10.4301 26.0109H14.81C16.4027 26.0109 17.3981 25.8118 18.1944 25.2146C18.7917 24.6173 19.1898 23.821 19.1898 22.8256C19.1898 21.8301 18.7917 21.0338 18.1944 20.6356C17.5972 20.0384 16.4027 19.8393 15.0091 19.8393H10.4301V26.0109ZM10.4301 38.9514H15.6063C17.3981 38.9514 18.5926 38.5532 19.3889 37.956C20.1853 37.3587 20.3843 36.5624 20.3843 35.5669C20.3843 34.5715 19.9862 33.7752 19.3889 33.1779C18.5926 32.5807 17.3981 32.3816 15.6063 32.3816H10.4301V38.9514Z" fill="#231815"/>
<path d="M36.311 13.2695H46.4643V45.9193H36.311V13.2695Z" fill="#231815"/>
<path d="M51.8398 35.1684L61.3959 34.5711C61.595 36.1638 61.9931 37.3583 62.5904 38.1546C63.5858 39.5482 65.1785 40.1455 66.9702 40.1455C68.3638 40.1455 69.5583 39.7473 70.3547 39.1501C71.151 38.5528 71.5492 37.7565 71.5492 36.761C71.5492 35.9647 71.151 35.1684 70.3547 34.5711C69.5583 33.9739 67.9656 33.1775 65.1785 32.5803C60.7986 31.5849 57.6133 30.1913 55.6224 28.5986C53.6316 27.0059 52.8353 24.816 52.8353 22.2279C52.8353 20.6352 53.2334 19.0426 54.2289 17.4499C55.2243 15.8572 56.6179 14.8618 58.6087 13.8664C60.5995 13.07 63.1876 12.6719 66.5721 12.6719C70.7528 12.6719 73.9382 13.4682 76.1281 15.0609C78.318 16.6536 79.7116 19.0426 80.1098 22.427L70.5537 23.0242C70.3547 21.6307 69.7574 20.4362 68.9611 19.8389C68.1647 19.2416 66.9702 18.8435 65.5766 18.8435C64.3821 18.8435 63.5858 19.0426 62.9886 19.6398C62.3913 20.2371 62.1922 20.8343 62.1922 21.4316C62.1922 22.0288 62.3913 22.427 62.9886 22.8252C63.3867 23.2233 64.5812 23.6215 66.373 24.0197C70.7528 25.0151 73.9382 26.0105 75.929 27.0059C77.9199 28.0013 79.3134 29.1959 80.1098 30.5894C80.9061 31.983 81.5034 33.5757 81.5034 35.3675C81.5034 37.5574 80.9061 39.3491 79.7116 41.1409C78.5171 42.9326 76.9244 44.3262 74.9336 45.1226C72.9428 46.118 70.1556 46.5162 66.9702 46.5162C61.3959 46.5162 57.6133 45.5207 55.4234 43.3308C53.2334 41.1409 52.0389 38.3537 51.8398 35.1684Z" fill="#231815"/>
<path d="M107.981 13.2695H118.134V32.7798C118.134 34.7706 117.736 36.5624 117.139 38.3541C116.542 40.1459 115.546 41.5395 114.352 42.9331C113.157 44.1276 111.764 45.123 110.37 45.7202C108.379 46.5166 105.99 46.7156 103.203 46.7156C101.611 46.7156 99.8187 46.5166 98.027 46.3175C96.2352 46.1184 94.6426 45.7202 93.249 44.9239C92.0545 44.3266 90.86 43.3312 89.8645 42.1367C88.8691 40.9422 88.0728 39.7477 87.6746 38.3541C87.0774 36.3633 86.6792 34.3724 86.6792 32.7798V13.2695H96.8325V33.1779C96.8325 34.9697 97.2307 36.3633 98.2261 37.3587C99.2215 38.3541 100.615 38.9514 102.407 38.9514C104.199 38.9514 105.592 38.5532 106.588 37.5578C107.583 36.5624 107.981 35.1688 107.981 33.377V13.2695Z" fill="#231815"/>
<path d="M125.103 13.2695H135.256V45.9193H125.103V13.2695Z" fill="#231815"/>
<path d="M96.6334 5.30523C96.6334 8.0924 94.4435 10.2823 91.6563 10.2823C88.8691 10.2823 86.6792 8.0924 86.6792 5.30523C86.6792 2.51805 88.8691 0.328125 91.6563 0.328125C94.4435 0.328125 96.6334 2.51805 96.6334 5.30523Z" fill="#231815"/>
<path d="M117.936 5.30523C117.936 8.0924 115.746 10.2823 112.959 10.2823C110.171 10.2823 107.981 8.0924 107.981 5.30523C107.981 2.51805 110.171 0.328125 112.959 0.328125C115.746 0.328125 117.936 2.51805 117.936 5.30523Z" fill="#231815"/>
</g>
<defs>
<clipPath id="clip0_110_413">
<rect width="134.979" height="46.1875" fill="white" transform="translate(0.276855 0.328125)"/>
</clipPath>
</defs>
</svg>
