<svg width="28" height="28" viewBox="0 0 28 28" fill="none" xmlns="http://www.w3.org/2000/svg">
<g clip-path="url(#clip0_119_319)">
<path d="M19.762 27.9688H8.6005C6.50221 27.9556 4.49433 27.1129 3.01525 25.6245C1.53616 24.1361 0.706014 22.123 0.706055 20.0247V8.91285C0.706014 6.81452 1.53616 4.80139 3.01525 3.313C4.49433 1.82462 6.50221 0.981865 8.6005 0.96875L19.762 0.96875C21.8689 0.96875 23.8895 1.80572 25.3793 3.29552C26.8691 4.78533 27.7061 6.80594 27.7061 8.91285V20.0743C27.6929 22.1726 26.8502 24.1805 25.3618 25.6596C23.8734 27.1386 21.8603 27.9688 19.762 27.9688ZM8.6005 3.48107C7.88535 3.47444 7.17604 3.61041 6.51403 3.88104C5.85203 4.15166 5.25059 4.55151 4.74488 5.05723C4.23917 5.56294 3.83932 6.16437 3.56869 6.82638C3.29807 7.48839 3.1621 8.19769 3.16872 8.91285V20.0743C3.17 20.7845 3.31181 21.4873 3.58597 22.1424C3.86014 22.7975 4.26123 23.3919 4.76615 23.8913C5.27106 24.3906 5.86982 24.7852 6.5279 25.0521C7.18598 25.319 7.89038 25.4531 8.6005 25.4465H19.762C21.1859 25.4439 22.5509 24.877 23.5578 23.8701C24.5647 22.8632 25.1315 21.4983 25.1342 20.0743V8.91285C25.1342 7.48714 24.5685 6.11968 23.5613 5.11062C22.5541 4.10156 21.1877 3.53335 19.762 3.53072L8.6005 3.48107Z" fill="white"/>
<path d="M23.0491 7.26446C23.051 7.59918 22.9534 7.92692 22.7687 8.20605C22.584 8.48518 22.3204 8.70308 22.0116 8.83208C21.7027 8.96108 21.3625 8.99535 21.0341 8.93053C20.7057 8.86571 20.404 8.70473 20.1673 8.46805C19.9306 8.23136 19.7696 7.92966 19.7048 7.60127C19.64 7.27289 19.6743 6.93264 19.8033 6.62378C19.9323 6.31491 20.1502 6.05137 20.4293 5.86663C20.7084 5.68189 21.0362 5.58431 21.3709 5.58627C21.8152 5.58888 22.2405 5.76652 22.5547 6.08068C22.8688 6.39484 23.0465 6.82018 23.0491 7.26446Z" fill="white"/>
<path d="M14.1513 21.4447C12.7765 21.4447 11.4326 21.037 10.2895 20.2732C9.14637 19.5094 8.25543 18.4238 7.72932 17.1536C7.20321 15.8835 7.06555 14.4859 7.33376 13.1375C7.60197 11.7891 8.264 10.5505 9.23612 9.57841C10.2083 8.60628 11.4468 7.94426 12.7952 7.67605C14.1436 7.40784 15.5412 7.54549 16.8113 8.0716C18.0815 8.59771 19.1671 9.48865 19.9309 10.6318C20.6947 11.7749 21.1024 13.1188 21.1024 14.4936C21.1024 16.3371 20.37 18.1051 19.0664 19.4087C17.7629 20.7123 15.9948 21.4447 14.1513 21.4447ZM14.1513 10.0052C13.2671 10.0052 12.4027 10.2675 11.6677 10.7589C10.9326 11.2504 10.3599 11.9489 10.0219 12.766C9.68402 13.5831 9.5961 14.4821 9.76933 15.3491C9.94256 16.2162 10.3691 17.0124 10.9951 17.637C11.621 18.2615 12.4181 18.6863 13.2856 18.8576C14.1531 19.0289 15.0519 18.939 15.8682 18.5993C16.6846 18.2595 17.3818 17.6852 17.8716 16.9491C18.3614 16.2129 18.6218 15.348 18.6198 14.4638C18.6172 13.2804 18.1453 12.1463 17.3075 11.3105C16.4698 10.4746 15.3347 10.0052 14.1513 10.0052Z" fill="white"/>
</g>
<defs>
<clipPath id="clip0_119_319">
<rect width="27" height="27" fill="white" transform="translate(0.65625 0.96875)"/>
</clipPath>
</defs>
</svg>
