<svg width="27" height="28" viewBox="0 0 27 28" fill="none" xmlns="http://www.w3.org/2000/svg">
<g clip-path="url(#clip0_119_313)">
<path d="M27 6.09511C25.9825 6.54563 24.9027 6.8398 23.7973 6.96767C24.9629 6.28016 25.8374 5.19061 26.2563 3.90377C25.1677 4.54694 23.9773 4.99963 22.7363 5.24237C21.9752 4.43396 20.9888 3.87276 19.905 3.63151C18.8212 3.39026 17.69 3.48006 16.6578 3.88929C15.6256 4.29853 14.7402 5.00832 14.1161 5.92669C13.4921 6.84507 13.1583 7.92969 13.1579 9.04002C13.1534 9.46383 13.2 9.88664 13.2967 10.2993C11.0925 10.1893 8.93629 9.61482 6.9695 8.61348C5.00271 7.61215 3.26968 6.20655 1.88395 4.48879C1.38708 5.33301 1.12677 6.29547 1.13037 7.27505C1.12716 8.18972 1.34996 9.09101 1.77895 9.89884C2.20795 10.7067 2.82986 11.396 3.58942 11.9056C2.71151 11.8749 1.85274 11.6407 1.08079 11.2214V11.2809C1.08095 12.5615 1.52453 13.8026 2.33614 14.7931C3.14775 15.7837 4.27731 16.4626 5.53287 16.7146C5.05482 16.8463 4.56122 16.913 4.06537 16.913C3.73242 16.9121 3.40035 16.8788 3.07382 16.8138C3.42738 17.9149 4.1165 18.8778 5.04464 19.5677C5.97278 20.2576 7.09346 20.6399 8.24972 20.661C6.27428 22.2128 3.83074 23.0483 1.31877 23.0308C0.877886 23.0344 0.437277 23.0079 0 22.9515C2.53051 24.5812 5.47782 25.4454 8.4877 25.4403C10.5613 25.4548 12.6171 25.0572 14.5358 24.2707C16.4544 23.4841 18.1978 22.3243 19.6645 20.8585C21.1313 19.3926 22.2922 17.65 23.08 15.7319C23.8677 13.8137 24.2666 11.7581 24.2534 9.68453C24.2534 9.43664 24.2534 9.19867 24.2534 8.9607C25.3373 8.17614 26.2739 7.20599 27.0198 6.09511" fill="white"/>
</g>
<defs>
<clipPath id="clip0_119_313">
<rect width="27" height="27" fill="white" transform="translate(0 0.96875)"/>
</clipPath>
</defs>
</svg>
